<svg width="12" height="13" viewBox="0 0 12 13" fill="none" xmlns="http://www.w3.org/2000/svg">
<path d="M3.89456 3.38875C4.16476 3.38368 4.43458 3.41166 4.69812 3.47208C4.92002 3.52101 5.13069 3.61206 5.31895 3.74039C5.49281 3.868 5.63038 4.03956 5.71784 4.23785C5.81836 4.48168 5.86685 4.74417 5.86015 5.0082C5.87157 5.29811 5.79826 5.58501 5.64936 5.83313C5.49272 6.06748 5.2762 6.25463 5.02277 6.37475C5.36669 6.4684 5.66625 6.68291 5.86758 6.9797C6.06085 7.29417 6.15799 7.65924 6.14685 8.0292C6.15322 8.32417 6.09284 8.61672 5.97029 8.88454C5.85702 9.11818 5.69117 9.32179 5.48601 9.47908C5.27479 9.63463 5.0371 9.74972 4.78475 9.81863C4.52306 9.89175 4.25271 9.92847 3.98119 9.92779H1V3.38875H3.89456ZM3.72254 6.03353C3.93484 6.04237 4.14383 5.97818 4.31532 5.85146C4.39744 5.77762 4.46133 5.6854 4.50187 5.58216C4.54241 5.47893 4.55848 5.36755 4.5488 5.25693C4.55429 5.12772 4.52882 4.99909 4.47454 4.88196C4.4285 4.7887 4.35691 4.71076 4.26829 4.6574C4.17853 4.59866 4.07768 4.55936 3.97211 4.54199C3.85757 4.51958 3.74102 4.50938 3.62437 4.51157H2.35055V6.03936H3.72254V6.03353ZM3.7968 8.81746C3.92519 8.81922 4.05331 8.80523 4.17836 8.7758C4.29264 8.75031 4.40103 8.70293 4.49764 8.63623C4.5923 8.56956 4.66877 8.47986 4.71999 8.37542C4.77937 8.24224 4.80665 8.09675 4.7996 7.95087C4.81247 7.81793 4.79504 7.68378 4.74864 7.55869C4.70223 7.43361 4.62808 7.32092 4.53188 7.22926C4.32798 7.07758 4.0781 7.00244 3.82526 7.01678H2.35055V8.81746H3.7968Z" fill="#280004"/>
<path d="M8.07035 8.79331C8.17636 8.89254 8.30123 8.96897 8.43738 9.01796C8.57353 9.06695 8.71812 9.08747 8.86237 9.07828C9.09104 9.08412 9.31527 9.01385 9.50052 8.8783C9.65122 8.77933 9.76534 8.63287 9.82516 8.46167H10.9022C10.7875 8.94905 10.5072 9.38041 10.1102 9.68073C9.72934 9.93606 9.27925 10.0654 8.82235 10.0507C8.49626 10.055 8.17264 9.99311 7.8707 9.86863C7.59757 9.75359 7.35261 9.57969 7.15294 9.35909C6.95402 9.12794 6.8012 8.86013 6.70289 8.57041C6.59255 8.24656 6.53854 7.90586 6.54325 7.56341C6.54124 7.2267 6.59707 6.89218 6.70826 6.57474C6.85763 6.12816 7.14324 5.74085 7.52409 5.46839C7.90494 5.19593 8.36146 5.05234 8.82813 5.0582C9.17267 5.05093 9.51338 5.13237 9.81815 5.29485C10.0936 5.44742 10.3313 5.66109 10.5132 5.9198C10.6993 6.19126 10.8327 6.49593 10.9063 6.81764C10.9871 7.1631 11.0158 7.51886 10.9917 7.87297H7.78366C7.75767 8.20566 7.86044 8.53557 8.07035 8.79331ZM9.47783 6.30643C9.38806 6.21574 9.28008 6.14553 9.16118 6.10054C9.04227 6.05555 8.9152 6.03682 8.78853 6.04562C8.62047 6.03915 8.45363 6.07675 8.30425 6.15478C8.18582 6.22063 8.08128 6.30922 7.99652 6.41559C7.9214 6.51531 7.86543 6.62836 7.83151 6.74889C7.80095 6.84942 7.78185 6.95314 7.77459 7.05804H9.76163C9.74432 6.78458 9.64569 6.52277 9.47865 6.30685L9.47783 6.30643Z" fill="#280004"/>
<path d="M10.0084 3.82538H7.51855V4.46824H10.0084V3.82538Z" fill="#280004"/>
</svg>
