<svg width="12" height="13" viewBox="0 0 12 13" fill="none" xmlns="http://www.w3.org/2000/svg">
<path d="M11.9998 6.63299C11.9998 8.23855 11.7333 9.54091 11.4046 9.54091C11.0759 9.54091 10.8096 8.2389 10.8096 6.63299C10.8096 5.02709 11.076 3.72507 11.4046 3.72507C11.7332 3.72507 11.9998 5.02697 11.9998 6.63299Z" fill="#280004"/>
<path d="M10.4816 6.63299C10.4816 8.4254 9.72396 9.87901 8.78938 9.87901C7.85479 9.87901 7.09717 8.4254 7.09717 6.63299C7.09717 4.84059 7.85468 3.38698 8.78926 3.38698C9.72385 3.38698 10.4815 4.84012 10.4815 6.63299" fill="#280004"/>
<path d="M6.76872 6.63299C6.76872 8.53721 5.25347 10.0809 3.38442 10.0809C1.51536 10.0809 0 8.53686 0 6.63299C0 4.72913 1.51525 3.18501 3.38442 3.18501C5.25359 3.18501 6.76872 4.72878 6.76872 6.63299Z" fill="#280004"/>
</svg>
